<mxfile host="app.diagrams.net" modified="2020-06-20T05:21:26.976Z" agent="5.0 (Windows NT 10.0; Win64; x64) AppleWebKit/537.36 (KHTML, like Gecko) Chrome/83.0.4103.106 Safari/537.36" etag="tXY4cuVR0TJKLlnkKp2B" version="13.3.0" type="github" pages="3">
  <diagram id="aj9KlWU5Ut6mGlDKeck0" name="Architecture">
    <mxGraphModel dx="1185" dy="594" grid="1" gridSize="10" guides="1" tooltips="1" connect="1" arrows="1" fold="1" page="1" pageScale="1" pageWidth="827" pageHeight="1169" math="0" shadow="0">
      <root>
        <mxCell id="0" />
        <mxCell id="1" parent="0" />
        <mxCell id="cnOaka_V5BydrBitot6e-1" value="SIP Server" style="shape=mxgraph.cisco.servers.voice_commserver;html=1;dashed=0;fillColor=#036897;strokeColor=#ffffff;strokeWidth=2;verticalLabelPosition=bottom;verticalAlign=top" vertex="1" parent="1">
          <mxGeometry x="640" y="160" width="54" height="56" as="geometry" />
        </mxCell>
        <mxCell id="cnOaka_V5BydrBitot6e-9" style="edgeStyle=orthogonalEdgeStyle;rounded=0;orthogonalLoop=1;jettySize=auto;html=1;exitX=0;exitY=0.5;exitDx=0;exitDy=0;exitPerimeter=0;endArrow=none;endFill=0;" edge="1" parent="1" source="cnOaka_V5BydrBitot6e-2" target="cnOaka_V5BydrBitot6e-4">
          <mxGeometry relative="1" as="geometry" />
        </mxCell>
        <mxCell id="cnOaka_V5BydrBitot6e-10" style="edgeStyle=orthogonalEdgeStyle;rounded=0;orthogonalLoop=1;jettySize=auto;html=1;exitX=0.5;exitY=1;exitDx=0;exitDy=0;exitPerimeter=0;endArrow=none;endFill=0;" edge="1" parent="1" source="cnOaka_V5BydrBitot6e-2" target="cnOaka_V5BydrBitot6e-5">
          <mxGeometry relative="1" as="geometry" />
        </mxCell>
        <mxCell id="cnOaka_V5BydrBitot6e-13" style="edgeStyle=orthogonalEdgeStyle;rounded=0;orthogonalLoop=1;jettySize=auto;html=1;exitX=1;exitY=0.45;exitDx=0;exitDy=0;exitPerimeter=0;entryX=0.16;entryY=0.55;entryDx=0;entryDy=0;entryPerimeter=0;endArrow=none;endFill=0;" edge="1" parent="1" source="cnOaka_V5BydrBitot6e-2" target="cnOaka_V5BydrBitot6e-3">
          <mxGeometry relative="1" as="geometry" />
        </mxCell>
        <mxCell id="cnOaka_V5BydrBitot6e-2" value="" style="shape=mxgraph.cisco.modems_and_phones.cable_modem;html=1;dashed=0;fillColor=#036897;strokeColor=#ffffff;strokeWidth=2;verticalLabelPosition=bottom;verticalAlign=top" vertex="1" parent="1">
          <mxGeometry x="176.5" y="100.5" width="74" height="35" as="geometry" />
        </mxCell>
        <mxCell id="cnOaka_V5BydrBitot6e-15" style="edgeStyle=orthogonalEdgeStyle;rounded=0;orthogonalLoop=1;jettySize=auto;html=1;exitX=0.625;exitY=0.2;exitDx=0;exitDy=0;exitPerimeter=0;entryX=0;entryY=0.5;entryDx=0;entryDy=0;entryPerimeter=0;endArrow=none;endFill=0;" edge="1" parent="1" source="cnOaka_V5BydrBitot6e-3" target="cnOaka_V5BydrBitot6e-6">
          <mxGeometry relative="1" as="geometry" />
        </mxCell>
        <mxCell id="cnOaka_V5BydrBitot6e-18" value="MGCP" style="edgeLabel;html=1;align=center;verticalAlign=middle;resizable=0;points=[];" vertex="1" connectable="0" parent="cnOaka_V5BydrBitot6e-15">
          <mxGeometry x="0.3308" y="-5" relative="1" as="geometry">
            <mxPoint y="1" as="offset" />
          </mxGeometry>
        </mxCell>
        <mxCell id="cnOaka_V5BydrBitot6e-16" style="edgeStyle=orthogonalEdgeStyle;rounded=0;orthogonalLoop=1;jettySize=auto;html=1;exitX=0.8;exitY=0.8;exitDx=0;exitDy=0;exitPerimeter=0;entryX=0;entryY=0.5;entryDx=0;entryDy=0;entryPerimeter=0;endArrow=none;endFill=0;" edge="1" parent="1" source="cnOaka_V5BydrBitot6e-3" target="cnOaka_V5BydrBitot6e-1">
          <mxGeometry relative="1" as="geometry" />
        </mxCell>
        <mxCell id="cnOaka_V5BydrBitot6e-17" value="SIP" style="edgeLabel;html=1;align=center;verticalAlign=middle;resizable=0;points=[];" vertex="1" connectable="0" parent="cnOaka_V5BydrBitot6e-16">
          <mxGeometry x="0.2235" y="-2" relative="1" as="geometry">
            <mxPoint as="offset" />
          </mxGeometry>
        </mxCell>
        <mxCell id="cnOaka_V5BydrBitot6e-3" value="" style="ellipse;shape=cloud;whiteSpace=wrap;html=1;" vertex="1" parent="1">
          <mxGeometry x="340" y="76" width="120" height="80" as="geometry" />
        </mxCell>
        <mxCell id="cnOaka_V5BydrBitot6e-4" value="Phone 1" style="verticalLabelPosition=bottom;aspect=fixed;html=1;verticalAlign=top;strokeColor=none;align=center;outlineConnect=0;shape=mxgraph.citrix.ip_phone;" vertex="1" parent="1">
          <mxGeometry x="90" y="200" width="76.5" height="37" as="geometry" />
        </mxCell>
        <mxCell id="cnOaka_V5BydrBitot6e-5" value="Phone 2" style="verticalLabelPosition=bottom;aspect=fixed;html=1;verticalAlign=top;strokeColor=none;align=center;outlineConnect=0;shape=mxgraph.citrix.ip_phone;" vertex="1" parent="1">
          <mxGeometry x="214" y="200" width="76.5" height="37" as="geometry" />
        </mxCell>
        <mxCell id="cnOaka_V5BydrBitot6e-6" value="NCS Server" style="shape=mxgraph.cisco.servers.voice_commserver;html=1;dashed=0;fillColor=#036897;strokeColor=#ffffff;strokeWidth=2;verticalLabelPosition=bottom;verticalAlign=top" vertex="1" parent="1">
          <mxGeometry x="640" y="30" width="54" height="56" as="geometry" />
        </mxCell>
      </root>
    </mxGraphModel>
  </diagram>
  <diagram id="SEZ6lGWgalIQqRPQAuRt" name="NCS">
    <mxGraphModel dx="1422" dy="713" grid="1" gridSize="10" guides="1" tooltips="1" connect="1" arrows="1" fold="1" page="1" pageScale="1" pageWidth="827" pageHeight="1169" math="0" shadow="0">
      <root>
        <mxCell id="_AgAoZpbwzS0N03R7HSt-0" />
        <mxCell id="_AgAoZpbwzS0N03R7HSt-1" parent="_AgAoZpbwzS0N03R7HSt-0" />
        <mxCell id="T0vl24CgAu4uOTC_8MEi-0" value="" style="shape=image;verticalLabelPosition=bottom;labelBackgroundColor=#ffffff;verticalAlign=top;aspect=fixed;imageAspect=0;image=data:image/png,iVBORw0KGgoAAAANSUhEUgAAAdwAAABtCAYAAAALQtCRAAAdWElEQVR4Ae2dAW5kSY5D62h1tDpa36wWAvb1sGmFFPEz8ztta4ABJZJifOeXHTm7vbO//vz58/f3799/f/36Nf+ez2B2YHZgdmB2YHbgyTvw9///9Wsu3PmiMV+2ZgdmB2YHZgdetwNz4T75G8ws6+uWdT7b+WxnB2YHvvIOzIU7F+78j41mB2YHZgdmB27Ygblwb/iQv/I3snn2+U8UswOzA7MDz9mBuXDnwp1vtrMDswOzA7MDN+zAXLg3fMjz7fA53w7nc5zPcXZgduAr78BcuHPhzjfb2YHZgdmB2YEbdmAu3Bs+5K/8jWyeff4TxezA7MDswHN2YC7cuXDnm+3swOzA7MDswA07kF64//zzz1/996u+3XRnoL/q/M/OjZ/Pn4GfOUO8rsGfYnY+GXoG3A7qnNcx75z2O/lZhs9pZtSud/3JPF7NhAMrDU+g+rpa53TWefouT3VmQNWihld0T9XrXNTudd09rp/Ou3/V+7nu63T3e7+a734+z/G+m+/0yNvx+LnT9/8p+MOFywfNh+c9/LOwyq+0Z52/yomzV9oz+NXPlvHKaR3P4f3us1VzldblZ7PKaU1WxqE5uve09zzvuzz14w2Eh9vtw+czzFa4mlnxVRbPAEYGfs/zPpthVpFMn+96z+/8rvu8PlNVZznq73T1ZvVq3nnvsyzl3H/aa1bUPu/69P0lq5/RW1+4+qB31q9cMrJB/7kyXjmtY9Z7z/MeP7jSnd/ts1zltCYz49A69NmuJw9fIFwgPJz3zrt+2mdnckaFfg7eFY+eoc5oHd7dPnxZtmfs5pGFn3x617ueeXwrJB90HzzoOj16IFyg8q6pjxo/PQjfZeBjzvFR3fOmry/g9sLNPkBeEqgeOEXVo1aNWj1wYKWFR3XP1959Wc+ZjuqtNPVVNRmVB63yVhrzGa7mVnyWsct1mZ1eneOzXU8WvkC4DPGpppzW6qHu9PDteMgDVzMrnjnHzu+69tSgZ0dfaZmufmpwJ1+91GA2v+K6mV09fNkZ3TwzKx/8Kr+bf5ZOzmB90fL5fLhwQ6heJhoBz+7J1eeouNPzNWtVe6b6XPNevVW9O1f5Kq06O7TVLLxil1Xp5Kw8nd7Nxbx7yFR0z07PvHqd877yqkZdzePJcDUHr5jNB4fnRNeZqKsc9WZnZLpyV/JP5rNngtMcOMVOV29Wd/Pogdl8x3XznU4+PvrBvYt19TmlFy7m7MOGc1zN4NvV8QX6bMa5p+s1f1V7hvpc8169Vb0zV3kqrToXbTXvvPfM72A32+mPnvFI/moWPkN9XnTlvN7x+Az97uzKt+K7fObA8GvdzXc6WeBpPnPgap7nWKHOZ55Oz2aU253f9Wm21t38o7qeNXV/GX+4cP0FdL1/yJ2/0zXPvaE5d9pr/qr2TPW55r16q7qbq/RKq85UbZXhvPeaUdXdXKdX2apVOTtaeDQv6mpux7szv+Pxs7Tfnc98GbebzWwgM3CrHh50P3wg2tX8nXk9b1WT86iuP4dmdfl4Vz74VX43/yydnMH+so3PiH/9+/8PlxfJB3h3z7mBfnbGVR60QM3tauZ2zlNvl6t6N7fSnfeeM+AD4RTRlYvaee/xwwfCKaIrp/Wu7vk+5z1nrHjXr+Z7zm6/8sHv4urnc77r/bzO73rMK6e1Z7t3p3eP53e9z0e/82/P9ZldPXw+G/1q3nnvyYIPhMty8eHpenyg++EH9/bIP6cPF24Y+JBBH4IHVXfOe8/XnhxmHCsvs45kON/1zAW6V7VMd7/2Pkuvnqg7Hh1czYeuGn7HyqMatc7DKaIrp/WuHj6di5pZsNJd63oyHbO5zOMcvc+vePeteuZB9cGBrmnvNTOO6nMtenSt4RSzWZ/JPGRk2sk8OSvs8jt9lQu/M+8eZnexm+/0OGfHs/s84/vf5ZxeuF/5A2JR+Bm8hx/83xLMZzGfxezA7MDswOt34NtduLE0XLLgLNLrF2k+4/mMZwdmB2YH6h34lhfuvPT6pc/nM5/P7MDswOzA/TswF+7mP0Qxy3n/cs5nPp/57MDswHfagblw58L99x94+U6LPT/L/KGeHZgdeLcdmAt3Lty5cGcHZgdmB2YHbtiBuXBv+JDf7VvWPM98858dmB2YHbh/B9IL95F/updZRX2xyketmtYrHzxe7+E7ZC6w8uLLPKtZZkCdhcsQn2vwga5prz5qdPpVhuqvrnkm8NnnkQt6Prxi53E9+ph3XjO9xrvi0XcxO59ZPQNuB3XO65h3Tvud/CzD5zQzatd3MrIZnVOd8zIu0zTHdXpHzd6tI2PXqz4/+ySH2Swv4yp/pmlGV588t2ZxrqLqn1mnF248EA975eF0VmuyMg4tO1v9WmdezVnVntH5wu+eVYbzXR+56tHataxfccpHZvTK0a841V9V+8/6yDn8jJ7Z9auf3+f82VZ6xiun9epsPyvrPUc9laa+rM5mldOa+YxDc3Tvad/lue495wWG5r1yzOJ5Vk9OhX5m5VUtm8s4ndE68zpX9ZWm53S153R+9Gwu4/DfjcsLNx7k6oP6XNfrD+1efw7XvdesrN714wPJogfhQee7PubcQ1amZd6Kc23VB6/n3lH7s1w9U3O0fsbn589EPrjSlVev1tnz6VxWMw+6Z8W7b9Vn88ppTUbGoXXos13vee533Xv8GYYXXueU0xqPc13PXIbMgpmn4nyOPrCaQ8v8cOHR2mcyPfMzlyF+MPNUnM/RB1Zzd2nlhRsPwQOfPJDPdL1mu1c1ajwg/A7uzKhHa83f5Ve+nazwXJnXGa09Dw3UZ6pq/KB74UHX6TMdThF/hvgyLTjXtacGNSPjTvRdb3eO5mi9mlvxOntad5mdXp3ns13vWe533Xv8GYYX3ufoOz3L2JkhH7wy42eTAZJdIV5wlbnK0LmVZ4e/mqNz1ODOua/2tBduPMDpA7u/6/WHdK9qWu/6dCZq5hTVAw/nfcfvnEGGepVTPs53TXt/vpOebJ/R/K7uZis905zzXp+n0sKX6cpRg49m6zx1lr2j4VnhKhdecZWxw5Oz8nZ6Nxfz7iFT0T30eOg7VH/U4XcOPstSb6ZrHt4qr8tY6SueM3kOcPcZmM9wN0tnV8/Z8WR0Ptd1LurQlXP/3X174V55WJ/pej4UMPzVB0EeWHld85lVD6+oWfDKed15Oj3yKk+mwWWoeejK+fOvemYV1as8terUmeac99UsWuDOHB5wZx5PNoMGVp5KY77C1bzz3leZrnWzne55WV9lVBpZOx68gZlfOa3VH7z2mum1Z7i+01/NYA6Ms7TuzlYvNfhIVneu63qma1XPHBheravZO7Tywr36oD530rvXPzDXve8+NPd77/MrfcXrfOWptJ2Mq/PMBXIOHH2F7j3tNdtnQ3PO+8yjmZ2e5fl8l/GovvsM2XPBrTKc9575Dru5Tu/y0aucStuZx6OYZSqnNXPKaZ3pwWUevLt4NYO5QM6Co6/QvfTk0WuGclqHx3udq+pH52Ke/KtZzD8TlxfuIw+ps1rz4M6d9J2XM1Z4Ou9+clf8o7rner+bv/JleRnHvKN7T3vN89nQnOt6zXvGPHl+Ljx4Vfc57z0/dDjFbg5v5zvN73Jd93x/Hu99nn6Fq/kTv2c8u189S8X7M7gXPVA1+I5TXeudefdor3Xkeq9nVXU3hx6oOfAdp/qddXrhZg+9+1DMKuqs8l5XPjRmVj18hWSAKy86GD5qR81QTXmt8ShHjQbCK1YaPjzgig8dbQfJY46eWfodfder2dQZap7W6lWeWvWo4UF0ekd0EJ0ehHdEB1WHC1Re68qjGvVq1nV6R+adp0cPhANV63RmHLsM99MzRx9YcWiB2Qw6Gj0Iv4vMOfq86pWGzz2rPvNX3Km2OheePEd0UHU4UDVqtM/G9ML97Iea8+//b0CZz3w+89mB2YHZgdfuwFy481/t+J9v7vML99pfuPl85/OdHfi5OzAX7ly4c+HODswOzA7MDtywA3Ph3vAhzzfan/uNdt79vPvZgdkBdmAu3Llw55vt7MDswOzA7MANOzAX7g0fMt9uBueb7uzA7MDswM/dgblw58Kdb7azA7MDswOzAzfswIcL1//vlrw/+Xb2yOzJOZmXs0H3wAeqpjx1p+/4NGPqn/sNd979vPvZgZ+7A9/ywvULsOpdi18G5bTmF2XFrfTMj3fw5/7yzbufdz878LN24KUX7mcsU3a5Kac1z+fcaU9OoM+uOJ2Z+mf90s37nvc9O/Azd+DShculAvrywIOqwymqHrVr9O7L+s6b6c5d6XkWn4XfRZ2nDtR55TsNL/Ndj2/wZ/5BmPc+73124HU7cHzhnvzBdm+8SOdO+24ZPM/9me7cbo8vkHPg6K+gZ2ivdWRXfWjuqfxXnnVmXvfLOZ/tfLazA99rB44v3FgA/6O9WorM59xpvzoL3vPgwUx37kpf5aPtYnW+a56petShOwfvmmdN/71+2ed9zvucHfjcHbh04fLS9A85nGKmO3faa35We154lNOaeedOe3L8LHjPg1+h+7XXOptXPerwOAfvWpY33Of+gs7nP5//7MD32YHjC1f/eMcieK/LkWnOea+ZaIGa29XM4at61/R8r1d5+FZ6dgbeDN2vvdacGxw5qsM7B5/NkzP4fX7J513Ou5wdeI8d+HDhxovhDzToLwse7HT1aa1neQa9++E7ZA50P3ygaspTd/qOTzO6mjxFnVE+6kyrOJ0PH73OTP0ev6DzHuY9zA58nx1IL9zPfMH+x9/7z3y2u87+iT/zXZ/tnPN9/njNu5x3+dV24O0u3PgAuXDAr/ahPvK8/MzgI1kzO3+QZgdmB2YH3mcH3vLCnQV5nwWZdzHvYnZgdmB24Dk7MBfuDf+F1bOsz1nW+Rznc5wdmB34yjswF+5cuP/5h66+8jLPs88f49mB2YF33oG5cOfCnQt3dmB2YHZgduCGHZgL94YP+Z2/cc2zzX8imB2YHZgduGcHlhcu/5Qs6C9kxbvvtCc3w9OsR/36DLtZV2Z2s5/p0+eMmmzn6V2nD3SPaquaGRCf956P7ujzrke/8sA/AzlXs5yjB9VLjQbCn2DMnvhPvVk+z5sh+a7Bn2J2Phl6BtwpVvlVlp6dZTyqV2e7xlnKwymqflcd52dn6XNRqw9OUXXq0KlPUHOzDPSTTLzpheuBq955Qh9Fz/X+0fyT+StnX5k5eabwxhmnM/j9+U569/IsJ8/jGdprfeV5u3nXvefMq5jl7XKc6X7v8VV4ZabKc22Vn/HKaR2Z3vs5q76aq7RVnvNXM3zu2b0/Z9X72eHd5arcZ2jZc+w8Xza3y+08t2d5T8aKR1/hhws3C1JO6wj1noPgA+F2kVn1X8nR+at19ixd1pWZLlP1R/KzWeeqHi2QZ4KjrzDzKkcdSA7cTu/emFFOa9fIfwTJDyQHjj4w41b8yqt51HhB+GchuaDnZrxyWses957nPX5wpTu/25ML7s7h8znv8YGP6uQ4rnKdpw/0jFf0el52Jjpn0+Ol73T34e/Q57zX+UpTn9ZbF64O+CHe44UPhNtFZvF7BjqIL9C5VQ8fqPOaUXl8RnvmNCvT1berM+Oo81XN3IlHZ6jByNG6yt3xkgVmM6pluj+D+1WvNPXt1uSBMac1ORm38jJzgqt8PQMP+Kx8z6nyK81ztF/NrXid3anvyunO6fTsZ6lmVKMGI0trsp2jB/GB8CC84kpTnhqM+axWjjMyzrXM45z3ZICdjg982YXLAVeQH0KRHLjP6jm3Qp4xMHz0Xl/ps5ngdv+tz7KawaOIVzmvw+Oc9qqT56h+r/E6Hz2aI17no6+0zL/DkZmhzqMrF/WKx4eeIZ6dHPVeqTm/m618lXY1l0zFLivTmc+0Xa7KQAvM8jo9m4Fjll5RNc5WLrzaa6051K53/Wou4yMreM302vUsBy7zah4+OEU0RzzOr/rLFy4HgasDrvCeGT05mXanznNUWD1jpZHpHniw0/FluDPrHu2zWrnsTOU6r+rUIDnaa40OXtWYv4J6JjWoeRkX+orX2Z26ykFz3MnFwyx9hpWn0rIs51bzznvvOav+6hx5u/Odr9M5T7GaQQNjTmty4ALhQNWoXaNfoc/hgweDz+qMI8NnMp55UD3UlXbiwRvIv379+fPn7+/fv//zw2HUg7UO3XufCR1uF1eZ2XnufXW/8zNUz1Bpnu1e9BWPXmE261zVr7Tgq3PRfD545bRWTfNXHs7QOeWofR7+GejZ9IGaD69c1BmfcT7n/ZUZz6j6Lr/SK606U7VVhvPea0ZVX52LzJPZztvpq59hNQcfyCwcvf4M6lMer896j89x5YMPZAYueuqVns3A6bxyq5qzrurZ3IcLN0x+kPZaZ14OwRcIt4vMZn7X7u6zZ3KueqZKi5xOd4/7/Vmy3mdOevf682TnOecZ2mvNnHNdXz3TzqzOh5/n2EHP1yydz3zornmPr8IrM1Wea13+Snfee86BD4RTRFcuaue9xw8fCKeIrpzW6D4Pj/fZPbk76GfHzA6nHq2z+VOd5/a5ilev1rsz+AJ93nu8K35Xx+eYXrhh4kCQwa7HdxXJB7McNNA98IGh0Xud9cpl86FX/+YsZjWPOfWob1fXzGyenApXz+A8PVne67Pg2UFyQGa893z0wN0ZfJqlOZqFV3W4HWROvc7Rg+qlRgPhO8Tv2M3t6p5L7/Mdjw6u5kNXDb9j5VGNWufhApXXWj3uU01ntK48qnl2ZLh+0vMMOgOniA5HH+gcfWCn4yFPZ7VG17wrus5oXeWr5ue7pnqmddzywu0GR68v3vl8vu7nwy/qvMOv+w7n3c27e8cdmAu3+U+s7/jS5pnmj8nswOzA7MDX24G5cOfCfeh/ZDW/9F/vl37e2byz2YHP2YG5cOfCnQt3dmB2YHZgduCGHZgL94YPeb5Nfs63yfnc53OfHZgdeKcdmAt3Ltz5Zjs7MDswOzA7cMMOzIV7w4f8Tt+w5lnmG//swOzA7MDn7MDywuX/NAL0F7Ti3Xfae673J3mPzJ6co17ODFT+3Wp9Tn1W5+l5fu+Dzzj8K2QGxOe956M7+rzr0a888M9AztUs5+hB9VKjgfAnGLMn/lNvls/zZki+a/CnmJ1Php4Bd4pVfpWlZ2cZj+rV2aN9zkW6+7mnFy4LQciqdx7/I+iZ3p9kPzJ7co577zg3zvBzd3t/vpPevXFmxlXP4n7ttSbDuap3zZ/Pde858ypmebscZ7rfe3wVXpmp8lxb5We8clpHpvd+zqqv5iptlef81Qyfe3bvzzn9e1+w/n4+XLi+IDGgnNauaTi+QOW7mjl83sO/M776mR/Jz2adq3q0QN4BHH2FmVc56kBy4HZ698aMclq7Rv4jSH4gOXD0gRm34ldezaPGC8I/C8kFPTfjldM6Zr33PO/xgyvd+d2eXHB3Dp/PeY8PfFQnZ/BrXLxbF66+TF8Q7/HCB8LtIHN4vQ8eDsQLwoPw2Wx4VHeP9u5b9Xqu1vjhQHgQHoQPhHNUT1Uzd+LRGWpQn6nKRNM5OEV0MDStd3rNy/yqe7ZqV2rywNX5qus5K149O3WVg+a4k4uHWfoKK2+lXcm8mudn3ZXTndPp/tzTv/fF+7IL9+qL9wU77fVcnw3NudNe81c1mYF+Jhqzp73nkbOLfl42h0cRn3Jeh8c57VUnz1H9XuN1Pno0R7zOR19pmX+HIzNDnUdXLuoVjw89Qzw7Oeq9UnN+N1v5Ku1qLpmKXVamM59pu1yVgRaY5XV6NjPce1+28X74V/n/nk9fpC6C1up5pCaTDO+Dzzj8ipnPudNe81d1lVlp5LkHHux0fBnuzLpH+6xWLjtTuc6rOjVIjvZao4NXNeavoJ5JDWpexoW+4nV2p65y0Bx3cvEwS59h5am0LMu51bzz3nvOqr86R97ufOfrdM4bfP/LNt4R/yovXH3pWkeA97x4+EC4HWQOr/fwgZW20n3mtNfzV3WVWWme5170FY9eYTbrXNWvtOCrc9F8PnjltFZN81ceztA55ah9Hv4Z6Nn0gZoPr1zUGZ9xPuf9lRnPqPouv9IrrTpTtVWG895rRlVfnYvMk9nO2+nVzzDa+13CHy7cbGH0pWudeXnJ+ALhdpA5vKc9c4E+m3GVBy1Qc7uaOXzaa73zPO73mUzn3BX6zEnvXn+e1ZnKe4b2WjPjXNdXz7Qzq/Ph5zl20PM1S+czH7pr3uOr8MpMledal7/Snfeec+AD4RTRlYvaee/xwwfCKaIrpzW6z8PjfXZP7uD7XaY77yS9cGOQRQEJ63p8jyBngJ4FD3a6+rSOOe9XWc6vevIC8cB57/yuHj5m9Rzmd1DnNcN5ejK912fBs4PkgMx47/nogbsz+DRLczQLr+pwO8icep2jB9VLjQbCd4jfsZvb1T2X3uc7Hh1czYeuGn7HyqMatc7DBSqvtXrcp5rOaF15VPPsyHB9+q952cZ741///o+Uf/rL5JeEz8F7+MGvu/Tdu5t3/n3fbffuR593/8odmAs3+a925A8u+MoXMNnzCz47MDswO/AzdmAu3OTCneX/Gcs/73ne8+zA7MCdOzAX7ly4878jmh2YHZgdmB24YQfmwr3hQ77zG9ScNd/YZwdmB2YH3nMH5sKdC3e+2c4OzA7MDswO3LADc+He8CHPt833/LY572Xey+zA7MCdO/DhwvV/Mtf7k4d7ZPbknJ/m5XMFT37+bKbiMi3Ogwd5BnpH9BOMjBM/Xj/7JIdZsgIr7lTT3K4+eW7N4pkUVZ96LpnZgc/ZgblwL/4n3Kt/DJ+56PxBPclkhuf3PrLgyH12T26FfmblVS2byzid0TrzOlf1labndLXndH70bC7j8A9+zh/e+dx/5uf+0gv3uy7Vu/wBu/IczGQY7wte351yWuNxruuZy5BZMPNUnM/RB1ZzaJkfLjxa+0ymZ37mMsQPZp6K8zn6wGputJ95Acx7v/e9X7pw9Zc4+0WudNe6+VgIZnaWQ73UeoZz9JoNB1bajkfno2YGPNXxr+bRM2Qmw/DDZ7M7eubpMrOzrsz42WSA2TnO4QVXmT5Hr3NwV/Bqjs5Rg1eeY2bu/YM8n/f3/ryPL1z/5fVeFybTnDvtNX9Vn2TiDYw8erK9zzx4M83nH+2rs1Rb1Xp+1P7MqmcZna55eDkny1txzK70Fa9znKvcag4eb4bhgcefIZ7ATN/hyNjxqkfnOF859U79vf+4z/t9v/d7fOHGS9z9Bc58zp32O0u0mxk+/3m6Wff783Tzrp/Oq7/LUi91NqOc1jFDH6g9eRkyk2m73NUM5sA4T+vufPVSg49kdee6rme6VvXMgeHVupod7f3+QM87+V7v5NKFyxJ0v8iZ7txpz9kVPpLZzca57tFnca3rdTbL9nn1V5r6tM5mlNOaOeW0zvTgMg/eXbyawVwgZ8HRV+heevLoNUM5rcPjvc5V9aNzMU/+1SzmB7/XH/15n5/3Po8vXP/l9V5fZqY5533Mwylqblczh6/r8QXueNWj9c78o/7qWVVb1X7+3c+8ei7ns+dUD3pgxnec6lqTW3Hu0V7ryPBec6u6m0MP1Bz4jlN96s/7Azyf/c/67D9cuLEA/NKCvhTwYKerT2s9yzPo3Q9fITOK+JWLGl7x1KOzUXfzz9bJ8+fI+sxbcWiBmqe8aiteZ6va5+l9Bj6w0vC5Z9Vn/oo71VbnwpPniA6qDgeqRo02+LP+wM/7fq/3nV64n/mS/A+E9zvPdmVmJ3c877W88z7mfcwOzA58pR14uws3PjwuTPDkA2UGPJkd7/zyzg7MDswOzA68agfe8sJ91Q87ufOLNDswOzA7MDvwWTswF+7F/2rHz3phc+78sZgdmB2YHfiaOzAX7ly4H/6ho/ll/pq/zPPe5r3NDrz3DsyFOxfuXLizA7MDswOzAzfswFy4N3zI863zvb91zvuZ9zM7MDtwxw7MhTsX7nyznR2YHZgdmB24YQfmwr3hQ77jm9OcMd/QZwdmB2YH3nsH5sKdC3e+2c4OzA7MDswO3LADXLj/B1k5nRZdvDL4AAAAAElFTkSuQmCC;" vertex="1" parent="_AgAoZpbwzS0N03R7HSt-1">
          <mxGeometry x="540" y="70" width="476" height="109" as="geometry" />
        </mxCell>
        <mxCell id="UJDkmYWgqyaklTDY-2-S-0" value="MGCP" style="text;html=1;strokeColor=none;fillColor=none;align=center;verticalAlign=middle;whiteSpace=wrap;rounded=0;" vertex="1" parent="_AgAoZpbwzS0N03R7HSt-1">
          <mxGeometry x="200" y="70" width="120" height="60" as="geometry" />
        </mxCell>
        <mxCell id="UJDkmYWgqyaklTDY-2-S-1" value="NCS Server" style="text;html=1;strokeColor=none;fillColor=none;align=center;verticalAlign=middle;whiteSpace=wrap;rounded=0;" vertex="1" parent="_AgAoZpbwzS0N03R7HSt-1">
          <mxGeometry x="530" y="30" width="110" height="30" as="geometry" />
        </mxCell>
      </root>
    </mxGraphModel>
  </diagram>
  <diagram id="tQpJZG8SW_-wLEaVNyLe" name="SIP">
    <mxGraphModel dx="1422" dy="713" grid="1" gridSize="10" guides="1" tooltips="1" connect="1" arrows="1" fold="1" page="1" pageScale="1" pageWidth="827" pageHeight="1169" math="0" shadow="0">
      <root>
        <mxCell id="TPm0FgzW2zPBliRdkXjg-0" />
        <mxCell id="TPm0FgzW2zPBliRdkXjg-1" parent="TPm0FgzW2zPBliRdkXjg-0" />
      </root>
    </mxGraphModel>
  </diagram>
</mxfile>
